<svg width="112" height="22" viewBox="0 0 112 22" fill="none" xmlns="http://www.w3.org/2000/svg">
<path d="M101.602 18.5039H102.949C103.848 18.5039 104.316 18.1914 104.648 17.332L104.844 16.8047L101.035 7H103.086L105.996 14.8125L108.828 7H110.918L106.953 17.5273C106.211 19.5195 105.293 20.2812 103.516 20.2812H101.602V18.5039Z" fill="#090909"/>
<path d="M90.5273 11.9609C90.5273 8.77734 92.3828 6.80469 95.293 6.80469C98.1055 6.80469 100.117 8.91406 100.117 11.8633V12.4688H92.5391C92.6758 14.4805 93.6719 15.5352 95.4297 15.5352C96.8555 15.5352 97.7344 14.8516 97.9492 13.7578H100C99.5898 15.9844 98.0273 17.1562 95.4102 17.1562C92.4219 17.1562 90.5273 15.1641 90.5273 11.9609ZM95.3125 8.32812C93.7305 8.32812 92.793 9.22656 92.5586 11.043H98.0469C97.9102 9.38281 96.8359 8.32812 95.3125 8.32812Z" fill="#090909"/>
<path d="M86.7773 11.082C86.7773 9.30469 85.8203 8.54297 84.3359 8.54297C82.9102 8.54297 81.8359 9.53906 81.8359 10.9453V17H79.9023V7H81.8359V8.52344C82.5781 7.39062 83.8281 6.74609 85 6.74609C87.1484 6.74609 88.7109 8.13281 88.7109 10.6719V17H86.7773V11.082Z" fill="#090909"/>
<path d="M56.0938 17H54.2969L50.4492 6.70703V17H48.5156V3.99219H51.3281L55.2148 14.2852L59.0039 3.99219H61.8945V17H59.9609V6.70703L56.0938 17Z" fill="#090909"/>
<path d="M46.875 15.3008V17H45.8984C44.3945 17 43.1641 16.1797 43.1641 14.2461V8.62109H41.4258V7H43.1641V4.40234H45.0977V7H46.875V8.62109H45.0977V13.9922C45.0977 15.0273 45.5078 15.3008 46.1133 15.3008H46.875Z" fill="#090909"/>
<path d="M40.0195 10.4375V17H38.0664V15.3203C37.3633 16.4922 36.1328 17.2148 34.668 17.2148C32.7344 17.2148 31.3477 15.9648 31.3477 14.1875C31.3477 12.4883 32.4023 11.4727 34.2969 11.3555L36.9922 11.1602C37.7734 11.1016 38.0664 10.8477 38.0664 10.2422V10.2031C38.0664 9.12891 37.0898 8.28906 35.8398 8.28906C34.375 8.28906 33.5742 8.91406 33.4375 10.1641H31.4258C31.5625 8.09375 33.2812 6.76562 35.8203 6.76562C38.2812 6.76562 40.0195 8.30859 40.0195 10.4375ZM33.3203 14.1094C33.3203 15.0273 34.1016 15.6328 35.3125 15.6328C36.8945 15.6328 38.0664 14.4414 38.0664 12.8594V12.5273L34.9805 12.7227C33.8867 12.8008 33.3203 13.2695 33.3203 14.1094Z" fill="#090909"/>
<path d="M27.5781 11.082C27.5781 9.30469 26.6211 8.54297 25.1367 8.54297C23.7305 8.54297 22.6562 9.53906 22.6562 10.9453V17H20.7031V2.99609H22.6562V8.52344C23.3789 7.39062 24.6289 6.74609 25.8203 6.74609C27.9688 6.74609 29.5117 8.13281 29.5117 10.6719V17H27.5781V11.082Z" fill="#090909"/>
<path d="M0.566406 3.99219H2.63672L5.35156 14.7148L8.67188 3.99219H10.9961L14.2578 14.7148L17.0703 3.99219H19.1406L15.3516 17H13.0664L9.80469 6.27734L6.5625 17H4.19922L0.566406 3.99219Z" fill="#090909"/>
<path fill-rule="evenodd" clip-rule="evenodd" d="M63.8794 8.52683C64.1202 7.097 64.7432 5.86598 65.7486 4.83376C67.0706 3.45891 68.7716 2.77148 70.8515 2.77148C72.9314 2.77148 74.6323 3.45891 75.9543 4.83376C77.2763 6.19099 77.9373 7.89193 77.9373 9.93659C77.9373 11.5037 77.549 12.874 76.7725 14.0476C77.2814 17.5622 80.6058 20.7576 82.279 21.9605C80.1516 21.7535 76.1782 20.0721 72.884 18.4942C72.8842 18.4801 72.8843 18.466 72.8843 18.4518C72.8843 16.9412 71.6598 15.7167 70.1492 15.7167C69.3387 15.7167 68.6105 16.0692 68.1097 16.6293C67.2208 16.2905 66.4338 15.7693 65.7486 15.0659C64.4267 13.691 63.7657 11.9812 63.7657 9.93659C63.7657 9.87421 63.7663 9.81215 63.7675 9.75041C63.7663 9.70345 63.7656 9.65635 63.7656 9.60913C63.7656 9.23948 63.8047 8.87774 63.8794 8.52683ZM68.8712 15.0271C68.8712 14.0133 68.9697 13.2882 69.1669 12.8517C69.3781 12.4152 69.7653 11.9646 70.3285 11.5C70.4975 11.3451 70.8002 11.1198 71.2367 10.8241C71.6732 10.5284 71.9829 10.2539 72.166 10.0004C72.3631 9.74697 72.4617 9.42312 72.4617 9.02887C72.4617 8.55013 72.2927 8.16996 71.9548 7.88835C71.6169 7.59266 71.1874 7.44482 70.6664 7.44482C70.0187 7.44482 69.4977 7.64195 69.1035 8.0362C68.7233 8.41637 68.5332 8.94438 68.5332 9.62024H65.1328C65.161 8.09956 65.682 6.8816 66.6957 5.96638C67.7095 5.05115 69.0824 4.59354 70.8143 4.59354C72.3913 4.59354 73.6585 4.99483 74.616 5.79741C75.5875 6.58592 76.0733 7.62083 76.0733 8.90214C76.0733 9.52168 75.9607 10.0708 75.7354 10.5496C75.5101 11.0283 75.2778 11.3803 75.0384 11.6056C74.799 11.8309 74.4822 12.0702 74.088 12.3237C73.9612 12.4082 73.7993 12.5138 73.6022 12.6405C73.4051 12.7531 73.2572 12.8447 73.1587 12.9151L72.8418 13.1263C72.7151 13.2108 72.6095 13.2882 72.525 13.3586C72.4546 13.429 72.3842 13.5064 72.3138 13.5909C72.0463 13.9289 71.9125 14.4076 71.9125 15.0271H68.8712Z" fill="#1883FF"/>
</svg>
